<?xml version="1.0" encoding="UTF-8" standalone="no"?>
<svg
   xmlns:osb="http://www.openswatchbook.org/uri/2009/osb"
   xmlns:dc="http://purl.org/dc/elements/1.1/"
   xmlns:cc="http://creativecommons.org/ns#"
   xmlns:rdf="http://www.w3.org/1999/02/22-rdf-syntax-ns#"
   xmlns:svg="http://www.w3.org/2000/svg"
   xmlns="http://www.w3.org/2000/svg"
   xmlns:xlink="http://www.w3.org/1999/xlink"
   xmlns:sodipodi="http://sodipodi.sourceforge.net/DTD/sodipodi-0.dtd"
   xmlns:inkscape="http://www.inkscape.org/namespaces/inkscape"
   version="1.1"
   id="svg10"
   width="721.5"
   height="188.89999"
   viewBox="0 0 721.5 188.89998"
   sodipodi:docname="logo-rolladenplanet.svg"
   inkscape:version="1.0.2-2 (e86c870879, 2021-01-15)"
   inkscape:label="rolladen_lab">
  <title
     id="title49">Rolladen Planet Logo</title>
  <metadata
     id="metadata16">
    <rdf:RDF>
      <cc:Work
         rdf:about="">
        <dc:format>image/svg+xml</dc:format>
        <dc:type
           rdf:resource="http://purl.org/dc/dcmitype/StillImage" />
        <dc:title>Rolladen Planet Logo</dc:title>
        <dc:date>2019.01.27</dc:date>
        <dc:creator>
          <cc:Agent>
            <dc:title>Andrzej Mazur</dc:title>
          </cc:Agent>
        </dc:creator>
        <dc:rights>
          <cc:Agent>
            <dc:title>Rolladen Group</dc:title>
          </cc:Agent>
        </dc:rights>
        <dc:publisher>
          <cc:Agent>
            <dc:title>Andrzej Mazur for Rolladen Group</dc:title>
          </cc:Agent>
        </dc:publisher>
        <dc:language>DE</dc:language>
        <dc:subject>
          <rdf:Bag>
            <rdf:li>rolladen planet</rdf:li>
          </rdf:Bag>
        </dc:subject>
        <dc:coverage>logo</dc:coverage>
        <dc:description>Logo type Rolladen Planet by Rolladen Gropu </dc:description>
      </cc:Work>
    </rdf:RDF>
  </metadata>
  <defs
     id="defs14">
    <linearGradient
       inkscape:collect="always"
       id="linearGradient4540">
      <stop
         style="stop-color:#97b725;stop-opacity:1"
         offset="0"
         id="stop4536" />
      <stop
         style="stop-color:#b7cd31;stop-opacity:1"
         offset="1"
         id="stop4538" />
    </linearGradient>
    <linearGradient
       id="linearGradient6008"
       osb:paint="solid">
      <stop
         style="stop-color:#ff0000;stop-opacity:1;"
         offset="0"
         id="stop6006" />
    </linearGradient>
    <linearGradient
       inkscape:collect="always"
       xlink:href="#linearGradient4540"
       id="linearGradient4542"
       x1="256.50299"
       y1="14.206448"
       x2="179.78191"
       y2="17.74198"
       gradientUnits="userSpaceOnUse"
       gradientTransform="matrix(1.7896117,0,0,1.7896117,-17.56298,0.1551093)" />
  </defs>
  <sodipodi:namedview
     pagecolor="#ffffff"
     bordercolor="#bbbbbb"
     borderopacity="1"
     objecttolerance="10"
     gridtolerance="10"
     guidetolerance="10"
     inkscape:pageopacity="0"
     inkscape:pageshadow="2"
     inkscape:window-width="2560"
     inkscape:window-height="1369"
     id="namedview12"
     showgrid="false"
     inkscape:zoom="1.8633429"
     inkscape:cx="442.49666"
     inkscape:cy="145.46955"
     inkscape:window-x="1912"
     inkscape:window-y="-8"
     inkscape:window-maximized="1"
     inkscape:current-layer="svg10"
     inkscape:pagecheckerboard="false"
     inkscape:showpageshadow="false"
     inkscape:snap-global="false"
     borderlayer="false"
     fit-margin-top="0"
     fit-margin-left="0"
     fit-margin-right="0"
     fit-margin-bottom="0"
     showguides="false"
     inkscape:guide-bbox="true"
     inkscape:document-rotation="0">
    <sodipodi:guide
       position="217.40347,83.868055"
       orientation="0,1"
       id="guide821"
       inkscape:locked="false" />
    <sodipodi:guide
       position="503.42815,130.36032"
       orientation="1,0"
       id="guide823"
       inkscape:locked="false" />
    <sodipodi:guide
       position="535.42296,84.681069"
       orientation="0,1"
       id="guide825"
       inkscape:locked="false" />
    <sodipodi:guide
       position="447.12477,88.552636"
       orientation="0,1"
       id="guide831"
       inkscape:locked="false" />
    <sodipodi:guide
       position="573.57921,121.97794"
       orientation="1,0"
       id="guide833"
       inkscape:locked="false" />
  </sodipodi:namedview>
  <path
     sodipodi:nodetypes="cccccscscsscscscccccccssscscscscscccccccsczccccscccsscccccsccccsccszcccccszcccccccccccccccccccccscccccccssccccsccssscccccccsscccccccccccccccccccccccccccccccccczcczc"
     inkscape:connector-curvature="0"
     id="planet"
     d="m 495.28766,150.74482 c -0.98354,-0.5008 -1.34665,-1.21585 -1.57934,-2.35813 -0.17614,-0.86506 -0.30741,-18.65889 -0.34085,-39.57277 l -0.0608,-38.025281 c 6.38438,-4.019696 13.20002,-5.32246 19.05197,-5.047922 12.81268,0.868522 18.25513,8.519758 17.30981,31.108653 -0.65555,14.92316 -2.88416,23.99521 -7.59583,29.19895 -3.69689,4.08296 -9.65817,4.5255 -13.66861,2.05648 -0.53556,-0.32972 -1.67748,-0.85875 -1.67748,-0.85875 v 11.43786 c 0,6.482 -0.0326,9.46768 0.0328,11.31615 -2.07606,0.75882 -3.27451,1.1598 -6.33013,1.44602 -2.57004,0.24073 -4.11639,-0.17926 -5.14163,-0.70126 z m 16.47253,-34.48947 c 1.75893,-3.38753 2.57451,-6.30383 2.58299,-21.358009 0.008,-13.573197 -0.0796,-14.781175 -1.15374,-15.99053 -1.25828,-1.416514 -2.9073,-1.584312 -4.47412,-0.994741 -1.04454,0.393044 -1.03132,0.496138 -1.82088,1.090172 -0.15439,2.470989 -0.16793,9.429762 -0.16793,18.135118 0,7.88283 0.16869,15.4027 0.0473,18.13386 0.5001,0.67244 0.4971,0.67359 0.91111,1.09502 1.25946,1.28217 2.8927,1.23772 4.07509,-0.11088 z m 179.56496,12.8268 c -3.58621,-0.74856 -5.53087,-2.54381 -6.82489,-5.67739 -0.95617,-2.31545 -1.12606,-5.235 -1.3556,-23.2952 l -0.26241,-20.647962 h -6.73924 l 0.16184,-4.306514 c 0.0888,-2.366854 0.0656,-5.064499 0.39263,-5.940592 0.5176,-1.385955 1.15574,-1.551733 3.55715,-1.551733 h 2.7601 V 57.493211 c 0,-7.476892 0.20741,-8.054472 0.70973,-9.042318 0.86335,-1.564202 1.28895,-1.986341 7.05245,-2.283209 l 5.65768,-0.291419 v 10.893246 10.893248 h 4.95645 4.95645 l -0.0726,5.412244 c -0.19043,3.692564 -0.52382,4.705712 -1.2186,5.474024 -0.6948,0.768312 -2.71241,0.897835 -4.80927,0.903066 l -3.81245,0.0096 V 97.11948 c 0,10.42164 0.25325,18.33597 0.61798,19.31263 0.56382,1.30375 1.20877,1.50521 3.20247,1.3579 1.42147,-0.16329 4.03064,-0.99173 5.36674,-1.27825 0.29454,2.58129 0.37628,4.53477 0.62816,8.21882 -0.17157,2.14436 -0.84196,2.65269 -2.69766,3.51702 -2.50115,1.16496 -8.77879,1.55437 -12.22714,0.8346 z m -128.33597,-0.95401 c -5.15178,-2.81835 -7.09366,-6.85304 -7.57294,-14.8254 -0.46138,-7.67461 0.70074,-14.46517 2.96315,-18.09694 2.80029,-4.495299 8.80523,-5.933692 14.68396,-4.505167 l 3.20246,0.998866 v -5.187466 c 0,-5.83339 -0.98794,-7.67347 -4.11745,-7.669061 -1.82003,0.0025 -11.77324,1.725087 -13.98099,2.387078 -1.66624,0.499624 -1.88587,-1.411127 -2.43625,-6.772141 -0.33178,-3.231166 -0.10789,-4.078421 1.23365,-5.444275 1.33229,-1.414503 8.95245,-3.140918 18.55783,-3.203246 8.95629,0.291253 10.16219,0.939008 12.3331,5.260691 1.00278,2.519211 0.80154,1.738633 1.23899,3.345009 0.9523,3.339097 0.74695,15.552189 0.64998,23.445262 -0.16946,13.79944 -0.31606,22.9401 -0.69631,27.26148 -2.40464,1.79002 -8.10122,3.8038 -15.75172,4.01476 -3.63748,0.36761 -8.58369,-0.0665 -10.30746,-1.00945 z m 11.0534,-10.18556 c 1.0867,-0.12814 0.98186,-0.26978 2.07422,-0.84339 0.13954,-1.24822 0.0919,-3.32548 0.0919,-6.80034 l 0.0571,-9.58889 -1.53749,-0.39285 c -2.08112,-0.29872 -3.85136,0.52765 -4.59166,2.50986 -0.77944,2.08711 -1.05937,11.83453 0.41267,14.13168 0.7632,1.191 2.40649,1.11206 3.49318,0.98393 z m 74.66554,10.31471 c -3.52715,-1.28153 -5.26551,-2.67478 -7.18803,-5.761 -2.95738,-4.7473 -4.50733,-10.71052 -4.29133,-23.16296 0.25044,-14.436561 1.70614,-22.314217 6.8648,-28.01161 3.37942,-3.732353 7.32848,-5.550122 13.60642,-5.508412 3.82808,0.0254 5.93088,0.744587 7.98924,1.837941 2.56312,1.862721 5.30151,4.097871 6.47316,9.627328 1.90031,5.322741 1.27466,21.880813 -0.83233,26.202293 -8.67175,0.73548 -11.54431,0.98696 -20.03499,1.55729 l 0.006,2.27077 c 0.006,3.60884 1.14592,6.85243 2.79656,7.95351 1.99761,1.33246 8.33655,0.8366 13.25516,-1.03688 1.95187,-0.74344 3.16585,-1.1593 3.7226,-1.10204 0.44229,0.10089 0.81521,3.20089 0.95265,6.3987 0.28195,5.71125 0.48823,5.57887 -1.29599,6.73485 -7.00982,2.43302 -14.45592,3.96621 -22.02364,2.00022 z m 10.62559,-35.280712 c 0.32057,-1.090515 0.4608,-1.840417 0.50126,-6.277249 0,-4.733494 -0.24065,-6.690177 -0.94958,-7.720545 -1.18346,-1.72011 -3.38851,-1.776997 -4.85676,-0.125325 -1.33303,1.499492 -2.70319,7.698651 -2.72087,12.309998 l 0.0675,3.194954 c 3.78959,-0.419669 5.79365,-0.870148 7.95842,-1.381833 z M 536.00623,85.711942 c 0,-24.076857 -0.40879,-41.092468 0.44511,-43.288577 0.86515,-2.115232 2.75623,-2.406104 7.42068,-2.664052 1.52578,-0.08437 5.55407,-0.04118 5.55407,-0.04118 v 43.402968 c 0,19.502489 0.0297,36.625889 0.12581,41.248339 0.0245,1.1694 -0.33604,2.15128 -1.0907,2.53156 -1.13922,0.57408 -3.50972,0.50047 -6.66949,0.50047 l -5.74505,-0.0824 z M 596.39562,98.48685 V 69.695749 l 3.20246,-1.007167 c 6.05987,-1.90581 10.0424,-3.09106 16.43172,-3.125785 5.45396,-0.0296 6.70412,0.754964 9.07573,1.944771 3.75639,1.884548 5.33286,4.280182 6.07869,11.460292 0.81493,7.845408 0.57709,45.30365 0.34057,46.88077 -0.0848,0.56752 -0.45788,0.8949 -0.95673,1.02081 -1.42474,0.35258 -2.84988,0.1825 -6.45028,0.2569 -5.34108,0.13134 -6.37229,0.15162 -6.37229,0.15162 v -22.68614 c 0,-24.992075 -0.24345,-26.58145 -3.28415,-26.99319 -0.82669,-0.111953 -2.22049,0.272528 -3.08107,0.605622 l -1.53611,0.751194 -0.0286,23.711534 c 0,21.1817 0.0597,21.96172 -0.36073,23.17022 -0.14621,0.42037 -0.4582,0.85294 -1.06663,1.04499 -1.2133,0.27111 -2.80413,0.18221 -6.15808,0.27447 -5.10154,0.11958 -5.83441,0.12129 -5.83441,0.12129 z M 705.58054,25.476107 c -4.87532,-1.509751 -7.91011,-4.597622 -9.13935,-9.299279 -2.60969,-9.9812377 7.63393,-19.195301 16.94031,-15.237719 4.78119,2.0332275 8.03605,6.9245383 8.03605,12.076393 0,8.362843 -8.20996,14.822473 -15.83701,12.460605 z m 7.78693,-3.763368 c 2.99293,-1.857681 4.41197,-4.673729 4.41466,-8.76065 0.006,-7.6780507 -6.88605,-12.3968361 -13.21704,-9.0506266 -4.38899,2.3197669 -6.39074,8.9099476 -4.16005,13.6955566 2.17077,4.657016 8.73334,6.740713 12.96243,4.11572 z m -9.18432,-2.077985 c -0.0454,-4.557794 -0.0263,-8.522966 0.004,-12.9359897 1.58385,-0.03216 2.80477,-0.0585 4.38989,-0.103083 1.58513,-0.04459 3.80663,0.391241 4.76561,1.593851 0.79051,1.545663 0.87368,2.1638507 0.22644,3.7999557 -0.60514,0.778473 -0.5359,0.569605 -1.45442,1.214692 0.43536,0.54737 0.7025,0.694029 1.05758,1.265501 0.45785,0.737156 0.72821,1.772132 0.96111,2.908007 0.18167,1.066996 0.49595,2.328002 0.49595,2.328002 -1.02966,0.02651 -2.21347,0.0077 -2.90322,0.0029 -0.0976,-0.53905 -0.18835,-1.786433 -0.42391,-2.63786 -0.5266,-1.541677 -1.09729,-2.132483 -2.2172,-2.482878 -0.82058,-0.118746 -1.28859,-0.132546 -1.96591,-0.06674 0.0216,2.096545 0.029,2.909261 0.008,5.180994 -1.12664,-0.01203 -1.90376,-1.64e-4 -2.94353,-0.0031 z m 6.47251,-7.976765 c 0.68617,-0.872907 0.73556,-1.563484 -0.0363,-2.2569467 -0.77208,-0.693461 -1.60501,-0.674134 -3.49877,-0.676411 0.008,1.5315217 0.01,2.1815437 0.0206,3.6778647 1.9275,-0.01806 2.8286,0.128402 3.51477,-0.744507 z"
     style="display:inline;fill:#000000;fill-opacity:1;stroke-width:0.615468" />
  <path
     style="display:inline;fill:url(#linearGradient4542);fill-opacity:1;stroke-width:0.572676"
     d="m 306.19234,188.54303 c -2.0436,-0.91393 -2.07451,-2.09758 -1.59852,-4.11615 0.31986,-1.35641 2.73402,-2.75217 5.7299,-5.08247 5.37397,-4.66923 5.59184,-4.23719 8.00745,-4.71577 1.56804,-0.31067 1.60511,-0.2754 3.47627,-0.53562 -0.12921,-4.32769 -1.7748,-69.2838 -1.7748,-69.2838 0,0 -2.95524,-0.0622 -9.22699,-0.17554 -10.48595,-0.18946 -11.12764,-0.2245 -7.04337,-6.60821 0,0 2.30884,-4.201219 3.48695,-4.524218 1.08457,-0.297344 6.33205,0 6.33205,0 l 6.2202,0.111851 -0.26609,-16.576278 c -0.20788,-9.055434 -0.54162,-21.038674 -0.74161,-26.629421 l -0.36367,-10.164995 c -5.18954,-0.447157 -14.70884,-0.712577 -16.11357,-1.610321 -1.40473,-0.897742 -1.72174,-1.750522 -1.49961,-4.754415 0.10882,-1.472327 0.45974,-8.911072 0.95371,-16.718721 0.50445,-7.9734517 0.69975,-14.1762801 1.44612,-15.02914 0.74632,-0.8528609 1.49069,-1.0981451 3.45756,-1.0538317 4.32607,0.097464 147.89434,14.3674327 149.4181,14.8469137 0.50138,0.157768 1.46995,0.881185 2.15237,1.607592 1.45471,1.548454 1.56981,3.279209 1.36497,20.523516 -0.15873,13.368393 -0.097,13.222414 -5.50937,13.000121 l -3.50098,-0.143795 c -0.59745,15.55038 -1.49759,32.421635 -1.69539,46.134382 0,0 2.41366,-0.16235 3.61941,-0.1074 2.30426,0.10499 4.98361,0.3209 5.73539,2.52929 0.35987,1.05713 0.11686,3.16828 -0.87092,4.08383 -1.27415,1.18082 -2.08787,1.40434 -5.11289,1.40434 h -3.59754 c -0.95148,18.8673 -1.76797,36.78858 -2.27922,54.4742 1.22949,-0.22045 2.98048,-0.50298 5.15648,-0.82905 3.46478,-0.75566 6.488,-0.37707 7.82253,2.42148 0.66748,1.77405 1.20155,4.40615 -1.93248,6.46581 -2.31539,1.01416 -5.57901,0.36008 -13.16059,1.2511 -13.33901,1.64226 -114.34638,16.6312 -135.42201,20.04007 -0.78743,0.13244 -1.98886,0.0266 -2.66984,-0.23535 z m 133.94251,-28.58329 c 0.21936,-14.31835 1.05281,-36.76542 1.84317,-55.01247 -39.83036,-0.33184 -70.27897,-0.30721 -113.07218,-0.21516 0.15856,11.43703 1.64793,58.47007 2.86294,68.56556 33.22303,-3.76572 74.88781,-8.81208 108.36607,-13.33793 z M 442.63116,88.6693 C 402.55812,87.12461 364.131,85.566755 328.1452,84.320564 c 0.0858,3.39198 0.18796,6.229508 0.18796,9.622193 39.30301,1.043534 79.90845,1.972933 114.07876,2.887143 0.1113,-4.098164 0.0746,-4.329236 0.21924,-8.1606 z m 0.49598,-12.912569 c -36.32631,-2.076621 -79.04363,-3.761224 -115.35597,-5.424359 0.14711,3.772196 0.0498,6.105952 0.253,9.875122 15.36845,0.703975 112.24711,4.527763 114.84442,4.387308 0.0126,-3.108142 0.16842,-4.477883 0.25855,-8.838071 z m 0.52416,-12.52955 c -37.06059,-2.778677 -84.75205,-5.960684 -116.37169,-7.884924 0.0816,3.757218 0.19453,7.004536 0.2746,10.616413 32.74017,1.53964 78.72593,3.796728 115.77935,5.78091 0.032,-3.61859 0.10291,-4.751013 0.31774,-8.512399 z m 0.74744,-12.919061 c -115.04155,-9.183496 -81.14759,-6.613002 -117.5865,-9.491419 0.0316,3.703723 0.0788,5.860956 0.28167,9.928951 40.33927,2.714751 86.15694,6.164653 116.63779,8.352092 0.55213,-7.263724 0.16678,-0.05354 0.66704,-8.789624 z"
     id="brama"
     inkscape:connector-curvature="0"
     sodipodi:nodetypes="cscsccscsccccczsszsccccccsscsccccccccccccccccccccccccccccccccc" />
  <path
     style="display:inline;fill:#111111;fill-opacity:1;stroke-width:0.609994"
     d="m 36.24591,127.56546 c -3.90864,-1.27962 -6.2634,-3.4055 -8.18908,-7.39312 -2.5463,-5.27271 -3.27382,-10.17614 -3.30593,-22.28134 -0.0384,-14.478664 1.62361,-21.105031 6.71356,-26.766267 3.51422,-3.908665 6.91883,-5.270085 13.06507,-5.224414 5.71376,0.04245 8.38751,0.932306 11.29983,3.760726 4.71566,4.579786 6.36422,11.29048 6.37939,25.968195 0.0153,14.82735 -1.67765,21.97036 -6.46255,27.26668 -3.40914,3.77351 -6.35922,5.05985 -12.13167,5.28986 -2.95177,0.11761 -5.86328,-0.12749 -7.36862,-0.62032 z m 9.84948,-13.35713 c 0.89611,-2.13464 1.13481,-4.9167 1.35158,-15.75327 0.30436,-15.215057 -0.27362,-19.739206 -2.66073,-20.826848 -1.96598,-0.895759 -3.57033,0.546798 -4.42979,3.983021 -1.717,6.864785 -1.33067,29.374337 0.57598,33.558957 0.54131,1.18806 1.19507,1.63061 2.40878,1.63061 1.38244,0 1.851,-0.44106 2.75418,-2.59247 z m 69.9957,12.93437 c -2.42812,-0.74524 -5.41578,-3.68449 -6.70462,-6.59597 -1.48259,-3.34918 -1.85417,-16.57178 -0.58809,-20.92696 2.13432,-7.341808 5.65023,-10.266397 12.76195,-10.219524 2.51623,0.01658 5.02098,0.655351 5.77585,1.069938 l 1.37248,0.753805 v -5.089823 c 0,-6.986935 -0.55425,-8.135819 -5.99948,-7.577329 -2.43958,0.09166 -5.41268,0.596513 -8.10606,1.070929 -1.61193,0.283927 -4.25428,1.270362 -4.54837,1.088601 -0.83949,-0.518837 -1.73555,-4.471271 -2.08247,-7.89307 -0.003,-2.025076 0.33294,-3.107308 1.20855,-3.899734 1.89065,-1.711008 6.94465,-2.751347 15.38396,-3.166691 6.50706,-0.320248 8.19299,-0.212674 10.50504,0.67031 3.52681,1.346903 5.55855,3.789135 6.39433,7.686277 0.70849,3.303524 0.33722,33.086821 0.12927,43.601351 l -0.12251,6.19417 -3.91736,1.99846 c -3.10826,1.26004 -4.85531,1.5099 -11.58988,1.65759 -4.36146,0.0957 -8.80412,-0.0944 -9.8726,-0.42233 z m 11.9522,-11.19016 c 0.4704,-0.56679 0.64699,-3.34991 0.53219,-8.38741 l -0.17181,-7.53915 c 0.13477,0 -1.01959,-0.8639 -2.47443,-0.64783 -1.4426,0.21425 -2.71455,0.54575 -3.54565,2.53487 -0.7629,2.91074 -0.94739,9.95968 0.075,13.87949 0.75569,1.41201 4.5061,1.45966 5.58469,0.16003 z m 30.25007,10.91925 c -3.35869,-1.17741 -7.3643,-5.702 -8.55416,-9.66247 -1.63626,-5.44627 -2.29084,-12.57408 -1.9694,-21.44504 0.53588,-14.789271 3.63604,-23.93049 9.51096,-28.044222 2.32622,-1.628866 4.18485,-1.967805 6.77741,-2.079853 2.52522,0.0018 4.08845,0.361462 5.00425,0.991283 0.6181,0.317804 0.94738,0.503837 1.49091,0.716922 0.0453,-1.207003 0.0694,-6.853617 0.12356,-12.417701 0,0 0.068,-9.178034 0.16179,-12.015706 0.0225,-0.68126 0.96256,-1.806716 1.60724,-2.234938 0.68226,-0.453179 2.43379,-0.894946 6.66947,-0.738477 l 4.64507,0.171599 V 124.207 l -0.9149,0.78364 c -3.67272,3.14576 -19.07988,3.79952 -24.5522,1.88116 z m 10.94901,-11.27923 1.57353,-0.59826 -0.32265,-37.538095 -2.04498,-0.18946 c -2.05807,-0.237665 -3.64306,1.448148 -4.79178,5.704757 -1.47228,7.41131 -1.42209,17.531218 -0.40163,28.034358 0.6969,4.19373 2.47173,5.92339 5.98752,4.58669 z m 31.83416,11.29461 c -4.35175,-1.55136 -7.5013,-5.65692 -9.37549,-12.22134 -0.49527,-1.73472 -1.16727,-7.12724 -1.34495,-12.50488 -0.48897,-14.799976 1.64572,-24.669294 6.3177,-30.794576 2.25029,-2.950277 8.1209,-5.635405 12.9183,-5.767157 12.19676,-0.334965 18.50008,8.069095 15.93109,27.507961 -0.35321,4.306542 -0.35544,4.406962 -1.21648,8.918912 -3.9206,0.61806 -6.74287,1.03533 -10.84609,1.31882 l -9.39882,0.44734 0.0896,2.65851 c 0.29171,4.9481 0.6122,6.13581 2.99613,7.6968 1.93311,1.26661 7.61303,0.8284 13.06405,-1.00792 2.08934,-0.70385 3.73162,-1.2325 3.92916,-1.03497 0.19752,0.19752 0.50362,2.84305 0.83771,6.18477 0.52118,5.21299 0.18738,5.75208 -1.19282,6.65524 -4.2861,2.52178 -17.4101,3.7048 -22.70868,1.94249 z m 10.75259,-34.224465 c 1.03085,-0.551684 1.05857,-1.600375 1.05857,-6.34334 0,-2.985827 -0.25877,-6.109398 -0.57505,-6.941271 -1.30569,-3.43421 -5.55169,-2.244569 -6.72715,1.884803 -0.35904,1.261283 -0.82509,4.420599 -1.03567,7.020698 l -0.38287,5.051011 3.18047,-0.161782 c 1.74702,-0.08887 3.83278,-0.162811 4.4817,-0.510119 z M 0,98.24995 V 70.507918 L 4.49253,68.28759 c 3.65038,-1.804117 5.40402,-2.282809 9.35489,-2.55361 8.8012,-0.603248 11.02151,1.116508 10.26514,7.95095 -0.58754,5.30902 -0.63791,5.373222 -3.90006,4.971835 -2.20683,-0.271534 -3.30252,0.10387 -4.80264,0.710986 -0.75093,0.30391 -1.97495,1.416331 -1.97495,1.416331 -0.15695,16.148748 -0.35737,28.884688 -0.3538,44.126918 -0.0592,0.19529 -0.47398,0.54801 -0.6565,0.63927 -0.60967,0.30484 -5.86718,0.26857 -5.86718,0.26857 L 0,125.99197 Z m 67.70929,-13.6906 c 0,-46.756 -1.95476,-44.039293 6.66642,-44.445221 5.58552,-0.262994 6.76172,-0.294237 6.76172,-0.294237 l -0.15664,42.912912 c 0,0 -0.13943,39.867086 -0.16861,41.756986 -0.1643,0.61251 -0.6405,0.98032 -1.2227,1.10261 -1.1686,0.24548 -5.70186,0.2686 -5.70186,0.2686 l -6.17833,0.0468 z m 20.73979,0 c 0,-45.866211 -1.66857,-44.003378 6.66643,-44.445221 5.30677,-0.281314 6.7617,-0.294237 6.7617,-0.294237 l -0.15663,42.912912 c 0,0 0.0867,39.729026 0.045,41.809056 -0.0976,0.66636 -0.79218,1.04107 -1.45726,1.08442 -1.46043,0.0952 -5.3018,0.1926 -5.3018,0.1926 l -6.59956,0.13099 z M 232.20196,69.822168 c 0,0 1.3409,-0.623988 1.80915,-0.805293 8.42554,-3.262445 21.70207,-4.478275 26.75303,-1.930564 3.00906,1.517774 4.92292,4.297448 5.777,8.42504 0.41833,2.021659 0.59639,11.647855 0.49294,26.649599 -0.093,7.89474 -0.0738,16.53606 -0.0793,21.57305 -0.093,1.17768 -0.32552,1.4778 -0.77755,1.61686 -2.55814,0.53922 -6.16741,0.46733 -6.16741,0.46733 l -6.86244,0.17248 -0.01,-22.74225 c -0.008,-17.045307 -0.20123,-23.124254 -0.77657,-24.267231 -0.89244,-1.77292 -3.1066,-2.178205 -5.37153,-1.226601 l -1.75089,0.957026 c -0.0213,14.989031 0.21466,29.991986 -0.0315,44.981386 -0.0618,1.33645 -0.24873,1.75183 -0.89606,1.85495 -2.15494,0.34326 -5.95686,0.27091 -5.95686,0.27091 l -6.15299,0.0957 c 0,-20.79947 -0.10618,-40.721262 4.6e-4,-56.092367 z"
     id="rolladen"
     inkscape:connector-curvature="0"
     sodipodi:nodetypes="ccscsscsscccsscccscscssccsccsccccccccsscccccsscccssssccsccccccscccccssccccccscscccccccccscccssccccsscaccccsccsscccssccscccssccssccccccscccccssccs" />
</svg>
