<svg xmlns="http://www.w3.org/2000/svg" viewBox="0 0 595 105"><defs/><path d="M23.47 102.67L0 17.17 67.26 1.12l7.99 32.62L26 47.47l3.58 15.43 48.35-10.5c.26.29 2.28 19.5 2.07 19.74l-47.85 2.4 3.01 14.08 47.56-.74-1.4 16.93zM557 84.88c-8.47-.32-14.93-.3-23.88-.4-1.06 5.06-1.9 10.19-3.1 15.2-.19.21-14.96-3.75-15.3-4.11L531.9 5.9l18.97.6L595 95.6c-.4.27-28.98 9.4-29.43 9.4L557 84.88zm-5.44-16.87c-3.72-10.59-5.08-14-10.28-26.92-2.15 10.03-2.96 14.87-5.28 28.8 6.57-.48 8.5-.85 15.56-1.88zM296.52 84.05l-24.87-.26-2.94 14.4c-.2.37-15.45-3.71-15.45-3.71l17.2-90.01 19.1.98 44.26 88.64-29.73 9.78zm-6.15-17.15L279.8 40.26l-5.31 28.88zm-66.48 35.28L200.46 65.5l-4.62 33.1-15.88-1.07 4.24-95.97 17.74-.63 27.95 46.76 5.8-41.05 16.44-.2-10.58 95.27zm-133.98-.44l-.23-12.8c13.26-18.22 0 0 40.85-53.77l-32.82 8.3c-2.62-38.29.05.01-2.62-38.29l72.56-3.77 3.52 6.44-61.95 81.95 55.5-5.6-.19 17.6-74.61-.06zm221.64-79.17l24.84-19.1c24.76 50.52-.47-.26 26.95 54.35l18.63-50.97 20.48 45.22L421.62 0c7.97 3.2 11.17 4.33 11.32 4.76.25.72-3.53 14.39-14.57 52.63l-8.1 28.15a118.43 118.43 0 01-2.24 7.3c-.3.33-14-1.53-14-1.53l-13.12-35.16-20.13 45.58zM483.68 97.6c-14.1-.76-25.53-4.45-34.27-11.06-6.69-5.06-10.36-11.47-12.46-21.73-2.95-14.4-1.2-30.77 4.48-42.05 4.3-6.7 12.72-10.83 18.38-12.1 3.85-.85 17.94-.96 23.01-.18 7.72 1.19 16.37 3.34 21.43 5.33l2.59 1.02-1.34 34.47c-9.82-1.07-23.81-1.05-29.33.04-6.52 1.3-11.38 3.65-14.2 6.88-2.07 2.37-2.73 3.9-2.94 6.77-.24 3.36.38 5.44 2.34 7.8 4.66 5.63 16.83 8.37 35.94 8.07l8.51-.13c1.4 6.97 1.93 8.93 3.44 15.17-.33.37-7.37 1.18-13.65 1.57-5.86.37-7.29.39-11.94.14z"/></svg>